<?xml version="1.0" encoding="UTF-8"?>
<svg id="Layer_1" data-name="Layer 1" xmlns="http://www.w3.org/2000/svg" baseProfile="tiny" version="1.2" viewBox="0 0 873 108.4">
  <g>
    <path d="M178.4,11.5c3.5,0,6.8.4,9.8,1.1,3,.7,5.6,1.9,7.7,3.6s3.8,3.9,5,6.7c1.2,2.8,1.8,6.2,1.8,10.3s-1.1,8.6-3.2,11.9c-2.2,3.3-5.4,5.6-9.7,6.8v.2c4.8.6,8.6,2.7,11.4,6.1,2.8,3.4,4.2,8,4.2,13.8s-.4,6.6-1.3,9.6c-.9,3-2.4,5.7-4.5,8-2.1,2.3-4.9,4.1-8.3,5.5-3.4,1.4-7.6,2-12.7,2h-29.2V11.5h28.9ZM171.7,46.7c4.8,0,8.3-.9,10.5-2.6,2.2-1.7,3.3-4.6,3.3-8.7s-1-7-3-8.6c-2-1.7-5.2-2.5-9.5-2.5h-6.2v22.4h4.9ZM173.5,84.5c4.2,0,7.5-.9,10.1-2.8,2.6-1.8,3.8-5.2,3.8-10.2s-.3-4.5-1-6.2c-.7-1.6-1.6-3-2.8-4-1.2-1-2.5-1.7-4.1-2.1-1.6-.4-3.4-.6-5.3-.6h-7.4v25.8h6.7Z" fill="#FFF" stroke-width="0"/>
    <path d="M248.2,11.5c7.2,0,12.8,1.8,16.8,5.5,4,3.6,6,9.2,6,16.6s-1.2,10.5-3.5,14.1c-2.3,3.6-5.9,6-10.8,7v.2c4.3.6,7.5,2,9.5,4.2,2,2.2,3.2,5.6,3.7,10.4.2,1.6.3,3.3.4,5.2,0,1.9.2,4,.2,6.3.2,4.6.4,8,.7,10.4.5,2.4,1.5,4,3.1,4.9v.7h-18.7c-.9-1.2-1.4-2.6-1.7-4.1-.2-1.6-.4-3.2-.5-4.9l-.5-16.4c-.2-3.4-1-6-2.5-7.9-1.5-1.9-4.1-2.9-7.7-2.9h-9.2v36.2h-17.3V11.5h31.9ZM240.7,49c4.2,0,7.4-1,9.6-2.9,2.2-2,3.4-5.3,3.4-9.9,0-7.9-4-11.9-12-11.9h-8.2v24.7h7.2Z" fill="#FFF" stroke-width="0"/>
    <path d="M301.6,71.3c0,2.2.1,4.1.4,5.9.3,1.8.8,3.4,1.6,4.7.8,1.3,1.8,2.4,3.1,3.1,1.3.8,3,1.1,5,1.1s3.8-.4,5-1.1c1.3-.8,2.3-1.8,3.1-3.1.8-1.3,1.3-2.9,1.6-4.7.3-1.8.4-3.8.4-5.9V11.5h17.3v59.8c0,5.4-.8,9.9-2.3,13.5-1.5,3.6-3.6,6.4-6.1,8.5-2.6,2.1-5.5,3.5-8.8,4.2-3.3.7-6.7,1.1-10.2,1.1s-6.9-.3-10.2-1c-3.3-.6-6.2-1.9-8.8-3.9-2.6-2-4.6-4.7-6.1-8.3-1.5-3.6-2.3-8.3-2.3-14V11.5h17.3v59.8Z" fill="#FFF" stroke-width="0"/>
    <path d="M363.8,73c0,2,.2,3.8.5,5.5.3,1.6.9,3,1.8,4.1.9,1.1,2.1,2,3.5,2.6,1.5.6,3.3,1,5.6,1s5-.9,7.1-2.6c2.1-1.7,3.2-4.4,3.2-8s-.3-3.6-.8-5c-.5-1.4-1.4-2.7-2.6-3.8-1.2-1.1-2.8-2.1-4.7-3.1-2-.9-4.4-1.9-7.3-2.8-3.8-1.3-7.2-2.7-10-4.2-2.8-1.5-5.1-3.3-7-5.3-1.9-2-3.3-4.4-4.1-7.1-.9-2.7-1.3-5.8-1.3-9.3,0-8.5,2.4-14.8,7.1-19,4.7-4.2,11.2-6.2,19.4-6.2s7.4.4,10.6,1.3c3.2.8,6,2.2,8.4,4.1,2.4,1.9,4.2,4.3,5.5,7.2,1.3,2.9,2,6.4,2,10.5v2.4h-16.6c0-4.1-.7-7.2-2.2-9.4-1.4-2.2-3.8-3.3-7.2-3.3s-3.5.3-4.8.8c-1.3.6-2.3,1.3-3.1,2.2-.8.9-1.3,2-1.6,3.2-.3,1.2-.4,2.4-.4,3.7,0,2.6.6,4.9,1.7,6.7,1.1,1.8,3.5,3.5,7.2,5l13.3,5.8c3.3,1.4,6,2.9,8,4.5,2.1,1.6,3.7,3.2,5,5,1.2,1.8,2.1,3.8,2.6,5.9.5,2.2.7,4.6.7,7.2,0,9-2.6,15.6-7.9,19.7-5.2,4.1-12.5,6.2-21.9,6.2s-16.7-2.1-20.9-6.4c-4.2-4.2-6.3-10.3-6.3-18.2v-3.5h17.3v2.5Z" fill="#FFF" stroke-width="0"/>
    <path d="M429.5,11.5v32.8h20.2V11.5h17.3v85.7h-17.3v-38h-20.2v38h-17.3V11.5h17.3Z" fill="#FFF" stroke-width="0"/>
    <path d="M546.2,95.5c-4.4,2-9,3-13.7,3s-10.4-.9-13.9-2.6c-3.5-1.8-6.2-3.9-8.2-6.4-1.9-2.5-3.2-5-3.8-7.7-.6-2.6-.9-4.8-.9-6.6,0-3.4.5-6.3,1.6-8.9,1.1-2.6,2.5-4.9,4.3-6.9,1.8-2,3.9-3.9,6.4-5.5,2.4-1.6,5-3.2,7.7-4.6-1.2-1.7-2.4-3.3-3.5-4.8-1.1-1.5-2.1-3.1-3.1-4.6-.9-1.6-1.6-3.2-2.2-4.9-.5-1.7-.8-3.7-.8-5.8s.4-4.5,1.3-6.7c.8-2.1,2.1-4,3.7-5.6s3.7-2.9,6.1-3.9c2.4-1,5.2-1.4,8.3-1.4s5.2.4,7.7,1.1c2.5.7,4.7,1.8,6.7,3.3,1.9,1.5,3.5,3.3,4.6,5.5,1.2,2.2,1.7,4.7,1.7,7.6s-.4,4.9-1.3,7.1c-.9,2.2-2.1,4.2-3.6,6.1-1.5,1.8-3.2,3.5-5.2,5-1.9,1.5-3.9,2.8-6,4l15.5,18.8c1.6-4.5,2.5-8.9,2.8-13.3h9.7c-.2,2.6-.5,4.7-.8,6.5-.3,1.8-.6,3.5-1.1,5-.4,1.5-1,3-1.6,4.5-.6,1.5-1.4,3.2-2.3,5.1l16.7,19.3h-13.3l-9.1-10.7c-2.6,4-6.1,7-10.5,9ZM525.7,59.3c-1.8,1.2-3.4,2.6-4.7,4.1-1.4,1.5-2.4,3.2-3.2,5.1-.8,1.9-1.2,4.1-1.2,6.7s.5,4.1,1.4,5.9c.9,1.8,2.1,3.3,3.7,4.6,1.5,1.2,3.3,2.2,5.2,2.9,2,.7,4,1.1,6.1,1.1,3.9,0,7.4-.9,10.5-2.8,3.1-1.8,5.7-4.3,7.7-7.4l-19.7-23.6c-2,1.1-3.9,2.3-5.7,3.5ZM538.6,41.9c1.4-1,2.6-2,3.7-3.2,1.1-1.2,2-2.5,2.8-4,.7-1.5,1.1-3.1,1.1-5s-.9-4.6-2.6-6.4c-1.8-1.8-4.2-2.7-7.2-2.7s-4.6.7-6.7,2.2c-2.1,1.5-3.1,3.8-3.1,6.9s.3,2.6.8,3.8c.5,1.3,1.2,2.5,2,3.8.8,1.2,1.7,2.5,2.6,3.7,1,1.2,1.9,2.4,2.9,3.6,1.2-.8,2.5-1.7,3.8-2.6Z" fill="#FFF" stroke-width="0"/>
    <path d="M641,11.5c3.5,0,6.8.4,9.8,1.1,3,.7,5.6,1.9,7.7,3.6,2.2,1.7,3.8,3.9,5,6.7,1.2,2.8,1.8,6.2,1.8,10.3s-1.1,8.6-3.2,11.9c-2.2,3.3-5.4,5.6-9.7,6.8v.2c4.8.6,8.6,2.7,11.4,6.1,2.8,3.4,4.2,8,4.2,13.8s-.4,6.6-1.3,9.6c-.9,3-2.4,5.7-4.5,8-2.1,2.3-4.9,4.1-8.3,5.5-3.4,1.4-7.6,2-12.7,2h-29.2V11.5h28.9ZM634.3,46.7c4.8,0,8.3-.9,10.5-2.6,2.2-1.7,3.3-4.6,3.3-8.7s-1-7-3-8.6c-2-1.7-5.2-2.5-9.5-2.5h-6.2v22.4h4.9ZM636.1,84.5c4.2,0,7.5-.9,10.1-2.8,2.6-1.8,3.8-5.2,3.8-10.2s-.3-4.5-1-6.2c-.7-1.6-1.6-3-2.8-4-1.2-1-2.5-1.7-4.1-2.1-1.6-.4-3.4-.6-5.3-.6h-7.4v25.8h6.7Z" fill="#FFF" stroke-width="0"/>
    <path d="M716.9,11.5l22.7,85.7h-18l-4-18.1h-22.8l-4,18.1h-18l22.7-85.7h21.4ZM714.6,64.9l-8.3-38.5h-.2l-8.3,38.5h16.8Z" fill="#FFF" stroke-width="0"/>
    <path d="M777.5,11.5c7.2,0,12.8,1.8,16.8,5.5,4,3.6,6,9.2,6,16.6s-1.2,10.5-3.5,14.1c-2.3,3.6-5.9,6-10.8,7v.2c4.3.6,7.5,2,9.5,4.2,2,2.2,3.2,5.6,3.7,10.4.2,1.6.3,3.3.4,5.2,0,1.9.2,4,.2,6.3.2,4.6.4,8,.7,10.4.5,2.4,1.5,4,3.1,4.9v.7h-18.7c-.9-1.2-1.4-2.6-1.7-4.1-.2-1.6-.4-3.2-.5-4.9l-.5-16.4c-.2-3.4-1-6-2.5-7.9-1.5-1.9-4.1-2.9-7.7-2.9h-9.2v36.2h-17.3V11.5h31.9ZM770,49c4.2,0,7.4-1,9.6-2.9,2.2-2,3.4-5.3,3.4-9.9,0-7.9-4-11.9-12-11.9h-8.2v24.7h7.2Z" fill="#FFF" stroke-width="0"/>
    <path d="M829.5,45.8h.2l21.8-34.3h18.7l-23.3,36.7,25.9,49h-19.4l-17.6-35.2-6.4,9.7v25.4h-17.3V11.5h17.3v34.3Z" fill="#FFF" stroke-width="0"/>
  </g>
  <path id="path1575" d="M75.6,0c-.2,0-.5,0-.7,0-9.6,1.7-14.9,11.8-15.7,20.8-1.1,8.1,2.5,18.6,11.4,20.4,1.3.2,2.6.1,3.9-.2,10.8-3.6,15.6-16.4,14-26.9C88.1,7.3,83,0,75.6,0ZM34.9.4c-6,.1-10.6,6.2-11.6,11.9-2,11.3,3.1,25.3,14.9,28.9,1.1.2,2.2.3,3.4,0,8-1.3,11.3-10.2,11-17.4-.2-9.5-5.2-20.5-15-23.1-.9-.2-1.8-.3-2.6-.3ZM101.7,32.5c-10.3.6-17.4,10.9-18.4,20.6-1.4,7,2.3,16.2,10.3,16.8,11.1-.1,18.6-12,18.9-22.1.7-6.7-3.3-14.9-10.7-15.3ZM11.2,34.8c-4.4,0-8.7,2.6-10.2,7.1-3.8,12,3.9,27.1,16.5,29.6,5.3.9,9.9-3.2,11.3-8,2.8-10.5-2.9-22.6-12.6-27.3-1.6-.9-3.3-1.3-5-1.3ZM57.5,56.3c-8.6,0-17.4,4.4-23,10.9-6,7.6-11,16.4-12.9,26-2.3,6.9,3,14.8,10.4,14.9,8.9.2,16.5-5.8,25.3-6.3,7.5-1.1,14.2,2.8,20.9,5.3,5.7,2.5,13.7,1.5,16.6-4.7,2.3-6.3-1.1-13-3.9-18.6-5.7-9.1-11.9-18.6-21.2-24.2-3.8-2.3-7.9-3.4-12.2-3.4Z" fill="#FFF" stroke-width="0"/>
</svg>